<svg width="1440" height="336" viewBox="0 0 1440 336" fill="none" xmlns="http://www.w3.org/2000/svg">
<rect width="1440" height="336" transform="matrix(1 0 0 -1 0 336)" fill="#EF4B04"/>
<path d="M0 234.972L48 201.404C96 167.837 192 100.702 288 61.5752C384 22.0286 480 11.5388 576 22.3433C672 33.5674 768 67.1348 864 117.486C960 167.837 1056 234.972 1152 257.315C1248 280.078 1344 257 1392 246.196L1440 234.972V7.959e-06H1392C1344 7.959e-06 1248 7.959e-06 1152 7.959e-06C1056 7.959e-06 960 7.959e-06 864 7.959e-06C768 7.959e-06 672 7.959e-06 576 7.959e-06C480 7.959e-06 384 7.959e-06 288 7.959e-06C192 7.959e-06 96 7.959e-06 48 7.959e-06H0V234.972Z" fill="white"/>
</svg>
